<?xml version="1.0" ?><!DOCTYPE svg  PUBLIC '-//W3C//DTD SVG 1.1//EN'  'http://www.w3.org/Graphics/SVG/1.1/DTD/svg11.dtd'><svg height="100px" id="形状_1_1_" style="enable-background:new 0 0 512 512;" version="1.1" viewBox="0 0 512 512" width="100px" xml:space="preserve" xmlns="http://www.w3.org/2000/svg" xmlns:xlink="http://www.w3.org/1999/xlink"><g id="形状_1"><g><path d="M256,21.911c-5.609,0-11.169,0.217-16.68,0.623l-44.11,124.7    h38.637c27.838,0,39.175,22.085,30.78,47.146l-56.864,160.527h-56.843l62.581-176.649h-29.297L121.64,354.907H64.278    l112.84-318.74C89.109,69.123,26.034,155.536,26.034,256.5c0,109.034,73.566,201.103,172.654,227.193l119.371-337.368h93.348    c19.287,0,42.984,12.978,32.998,43.184c-10.02,30.222-46.092,130.77-52.748,149.939c-6.665,19.173-22.674,23.024-35.348,23.024    h-57.374l-45.505,128.582l2.571,0.034c126.659,0,229.967-105.383,229.967-234.589C485.967,127.291,382.659,21.911,256,21.911z     M396.593,177.754c0.172-0.646,0.172-1.204,0-1.677c-0.442-0.879-1.426-1.383-2.666-1.515h-28.17    c-2.205,0.145-3.707,0.918-4.604,2.236l-9.709,27.438l-46.286,130.831h35.763l10.523-29.742L396.593,177.754z" style="fill-rule:evenodd;clip-rule:evenodd;fill:#005AA9;"/></g></g></svg>